<svg width="10" height="10" viewBox="0 0 10 10" fill="none" xmlns="http://www.w3.org/2000/svg">
<path d="M0.5 5C0.5 3.91184 1.0586 3.07134 1.8309 2.20846C2.70958 1.22672 3.72981 0.5 5 0.5C5.53386 0.5 6.03967 0.708704 6.5421 1.01345C6.79223 1.16516 7.03116 1.33408 7.26847 1.50464C7.29378 1.52283 7.31918 1.54112 7.34466 1.55947C7.55159 1.7085 7.76329 1.86095 7.96417 1.9865C8.28692 2.18822 8.67729 2.61461 8.98897 3.1813C9.29757 3.7424 9.5 4.38895 9.5 5C9.5 5.63876 9.27042 6.41015 8.95036 7.07634C8.7924 7.40511 8.61951 7.69326 8.45624 7.91274C8.28287 8.14581 8.15399 8.25561 8.09677 8.28635C7.98955 8.34393 7.87211 8.41095 7.74422 8.48393C7.45217 8.6506 7.10564 8.84835 6.70195 9.03579C6.12839 9.30211 5.5308 9.5 5 9.5C3.61568 9.5 2.44072 8.60427 1.53002 7.59609C0.91532 6.79753 0.5 5.98703 0.5 5Z" fill="white" stroke="#7E6579"/>
</svg>
